<?xml version="1.0" encoding="UTF-8" standalone="no"?>
<svg
   shaper:fusionaddin="version:1.8.0"
   width="14.4798828cm"
   height="15.3cm"
   version="1.1"
   x="0cm"
   y="0cm"
   viewBox="0 0 14.4798828 15.3"
   enable-background="new 0 0 14.4798828 15.3"
   xml:space="preserve"
   id="svg1208"
   sodipodi:docname="bottom-one-path.svg"
   inkscape:version="1.2.2 (b0a8486541, 2022-12-01)"
   xmlns:inkscape="http://www.inkscape.org/namespaces/inkscape"
   xmlns:sodipodi="http://sodipodi.sourceforge.net/DTD/sodipodi-0.dtd"
   xmlns="http://www.w3.org/2000/svg"
   xmlns:svg="http://www.w3.org/2000/svg"
   xmlns:rdf="http://www.w3.org/1999/02/22-rdf-syntax-ns#"
   xmlns:cc="http://creativecommons.org/ns#"
   xmlns:dc="http://purl.org/dc/elements/1.1/"
   xmlns:shaper="http://www.shapertools.com/namespaces/shaper"><metadata
     id="metadata1214"><rdf:RDF><cc:Work
         rdf:about=""><dc:format>image/svg+xml</dc:format><dc:type
           rdf:resource="http://purl.org/dc/dcmitype/StillImage" /></cc:Work></rdf:RDF></metadata><defs
     id="defs1212" /><sodipodi:namedview
     pagecolor="#ffffff"
     bordercolor="#666666"
     borderopacity="1"
     objecttolerance="10"
     gridtolerance="10"
     guidetolerance="10"
     inkscape:pageopacity="0"
     inkscape:pageshadow="2"
     inkscape:window-width="1920"
     inkscape:window-height="1011"
     id="namedview1210"
     showgrid="false"
     inkscape:zoom="1.2325842"
     inkscape:cx="228.78762"
     inkscape:cy="322.08753"
     inkscape:window-x="0"
     inkscape:window-y="0"
     inkscape:window-maximized="1"
     inkscape:current-layer="svg1208"
     inkscape:showpageshadow="0"
     inkscape:pagecheckerboard="0"
     inkscape:deskcolor="#d1d1d1"
     inkscape:document-units="cm" /><path
     id="path1176"
     style="fill:#000000;fill-opacity:1;stroke:#000000;stroke-opacity:1;stroke-width:0.01;stroke-miterlimit:4;stroke-dasharray:none"
     d="M -5.5765443 7.65 A 0.2 0.2 0 0 1 -5.7765321 7.4500122 L -5.7765321 5.7555937 A 3.8 3.8 0 0 0 -6.02985 4.3914392 L -7.0832224 1.6525883 A 2.9 2.9 0 0 1 -7.2765439 0.61151489 L -7.2765439 0.33711304 A 2.9 2.9 0 0 1 -7.0481857 -0.79088013 L -5.5103985 -4.4329317 A 1.7 1.7 0 0 0 -5.3765565 -5.0941833 L -5.3765565 -7.4500085 A 0.2 0.2 0 0 1 -5.1765687 -7.6499963 L 3.1607002 -7.6499963 A 5.8 5.8 0 0 1 6.0606782 -6.8729378 L 7.1033536 -6.2709591 A 0.2 0.2 0 0 1 7.1765274 -5.9977458 L 5.1359801 -2.4633879 A 4.85 4.85 0 0 0 4.5826289 0.92405396 L 5.3321438 4.6258435 A 5.15 5.15 0 0 1 5.4345665 5.6478483 L 5.4345665 7.4500122 A 0.2 0.2 0 0 1 5.2345787 7.65 L -5.5765443 7.65 z M -5.2897401 6.9094767 A 0.16 0.16 0 0 0 -5.1165207 6.7500033 A 0.16001607 0.16001607 0 1 0 -5.4365529 6.7500033 A 0.16 0.16 0 0 0 -5.2897401 6.9094767 z M 5.0102513 6.9094767 A 0.16 0.16 0 0 0 5.1834707 6.7500033 A 0.16001607 0.16001607 0 1 0 4.8634386 6.7500033 A 0.16 0.16 0 0 0 5.0102513 6.9094767 z M -6.3397535 2.6094291 A 0.16 0.16 0 0 0 -6.1665341 2.4500073 A 0.16001607 0.16001607 0 0 0 -6.4865663 2.4500073 A 0.16 0.16 0 0 0 -6.3397535 2.6094291 z M 4.3102424 2.5094352 A 0.16 0.16 0 0 0 4.4834618 2.3500134 A 0.16 0.16 0 1 0 4.1634813 2.3500134 A 0.16 0.16 0 0 0 4.3102424 2.5094352 z M -6.7897519 0.60944784 A 0.16 0.16 0 0 0 -6.6165325 0.44997437 A 0.16001607 0.16001607 0 1 0 -6.9365647 0.44997437 A 0.16 0.16 0 0 0 -6.7897519 0.60944784 z M 3.8102212 0.50945394 A 0.16 0.16 0 0 0 3.9834406 0.34998047 A 0.16 0.16 0 1 0 3.6634602 0.34998047 A 0.16 0.16 0 0 0 3.8102212 0.50945394 z M 2.8102306 -1.4905273 A 0.16 0.16 0 0 0 2.98345 -1.6500008 A 0.16 0.16 0 1 0 2.6634695 -1.6500008 A 0.16 0.16 0 0 0 2.8102306 -1.4905273 z M -5.1765687 -4.9999772 L -0.12654105 -4.9999772 A 0.15 0.15 0 0 0 0.023475631 -5.1499939 L 0.023475631 -5.3499817 A 0.15 0.15 0 0 0 -0.12654105 -5.4999984 L -5.1765687 -5.4999984 L -5.1765687 -4.9999772 z M 0.473474 -5.4499756 L 1.7734463 -5.4499756 A 0.15 0.15 0 0 0 1.923463 -5.5999923 L 1.923463 -6.2000073 A 0.15 0.15 0 0 0 1.7734463 -6.350024 L 0.473474 -6.350024 A 0.15 0.15 0 0 0 0.32345732 -6.2000073 L 0.32345732 -5.5999923 A 0.15 0.15 0 0 0 0.473474 -5.4499756 z M 2.6703942 -5.4739018 A 0.16 0.16 0 0 0 2.8436136 -5.6333752 A 0.16001607 0.16001607 0 1 0 2.5235814 -5.6333752 A 0.16 0.16 0 0 0 2.6703942 -5.4739018 z M -4.9897584 -5.8905688 A 0.16 0.16 0 0 0 -4.816539 -6.0499906 A 0.16 0.16 0 1 0 -5.1365195 -6.0499906 A 0.16 0.16 0 0 0 -4.9897584 -5.8905688 z M -3.7625465 -5.9564563 A 0.12645 0.12645 0 0 0 -3.6321669 -6.0828569 A 0.12645223 0.12645223 0 1 0 -3.8850713 -6.0828569 A 0.12645 0.12645 0 0 0 -3.770298 -5.9569214 A 0.12645 0.12645 0 0 0 -3.7625465 -5.9564563 z M -1.0674655 -5.9564563 A 0.12645 0.12645 0 0 0 -0.93708589 -6.0828569 A 0.12645225 0.12645225 0 0 0 -1.1899904 -6.0828569 A 0.12645 0.12645 0 0 0 -1.075217 -5.9569214 A 0.12645 0.12645 0 0 0 -1.0674655 -5.9564563 z M 3.7292959 -5.9564563 A 0.12645 0.12645 0 0 0 3.8596239 -6.0828569 A 0.12645225 0.12645225 0 0 0 3.6067194 -6.0828569 A 0.12645 0.12645 0 0 0 3.7215445 -5.9569214 A 0.12645 0.12645 0 0 0 3.7292959 -5.9564563 z M -5.1765687 -6.6999768 L -0.12654105 -6.6999768 A 0.15 0.15 0 0 0 0.023475631 -6.8499935 L 0.023475631 -7.0499813 A 0.15 0.15 0 0 0 -0.12654105 -7.199998 L -5.1765687 -7.199998 L -5.1765687 -6.6999768 z "
     transform="matrix(1,0,0,-1,7.2765439,7.65)" /></svg>
