<?xml version="1.0" encoding="UTF-8" standalone="no"?>
<svg
   xmlns:shaper="http://www.shapertools.com/namespaces/shaper"
   xmlns:dc="http://purl.org/dc/elements/1.1/"
   xmlns:cc="http://creativecommons.org/ns#"
   xmlns:rdf="http://www.w3.org/1999/02/22-rdf-syntax-ns#"
   xmlns:svg="http://www.w3.org/2000/svg"
   xmlns="http://www.w3.org/2000/svg"
   xmlns:sodipodi="http://sodipodi.sourceforge.net/DTD/sodipodi-0.dtd"
   xmlns:inkscape="http://www.inkscape.org/namespaces/inkscape"
   shaper:fusionaddin="version:1.8.0"
   width="2.8cm"
   height="7.5732759cm"
   version="1.1"
   x="0cm"
   y="0cm"
   viewBox="0 0 2.8 7.5732759"
   enable-background="new 0 0 2.8 7.5732759"
   xml:space="preserve"
   id="svg8"
   sodipodi:docname="cover.svg"
   inkscape:version="1.0.1 (3bc2e813f5, 2020-09-07)"><metadata
     id="metadata14"><rdf:RDF><cc:Work
         rdf:about=""><dc:format>image/svg+xml</dc:format><dc:type
           rdf:resource="http://purl.org/dc/dcmitype/StillImage" /></cc:Work></rdf:RDF></metadata><defs
     id="defs12" /><sodipodi:namedview
     pagecolor="#ffffff"
     bordercolor="#666666"
     borderopacity="1"
     objecttolerance="10"
     gridtolerance="10"
     guidetolerance="10"
     inkscape:pageopacity="0"
     inkscape:pageshadow="2"
     inkscape:window-width="1080"
     inkscape:window-height="1857"
     id="namedview10"
     showgrid="false"
     inkscape:zoom="3.5215935"
     inkscape:cx="37.721399"
     inkscape:cy="143.11703"
     inkscape:window-x="-8"
     inkscape:window-y="-8"
     inkscape:window-maximized="1"
     inkscape:current-layer="svg8" /><path
     d="M-14.4000002,-0.5 L-12.0000002,-0.5 A0.2,0.2 270 0,1 -11.8000002,-0.3 L-11.8000002,5.8723522 A0.2,0.2 0 0,1 -11.9157779,6.053754 L-14.0315557,7.0360794 A0.4,0.4 65.0952312 0,1 -14.6000002,6.6732759 L-14.6000002,-0.3 A0.2,0.2 180 0,1 -14.4000002,-0.5z"
     transform="matrix(1,0,0,-1,14.6000002,7.0732759)"
     fill="rgb(0,0,0)"
     stroke-linecap="round"
     stroke-linejoin="round"
     id="path2"
     style="fill:#ffffff;fill-opacity:1;stroke:#000000;stroke-opacity:1;stroke-width:0.01;stroke-miterlimit:4;stroke-dasharray:none" /><path
     d="M-14.3600002,6.7000001 a0.16,0.16 0 1,1 0.32,0 a0.16,0.16 0 1,1 -0.32,0z"
     transform="matrix(1,0,0,-1,14.6000002,7.0732759)"
     fill="rgb(255,255,255)"
     stroke="rgb(0,0,0)"
     stroke-width="0.0010cm"
     stroke-linecap="round"
     stroke-linejoin="round"
     id="path4"
     style="fill:#ffffff;fill-opacity:1;stroke:#000000;stroke-opacity:1;stroke-width:0.01;stroke-miterlimit:4;stroke-dasharray:none" /><path
     d="M-12.3600002,5.7500001 a0.16,0.16 0 1,1 0.32,0 a0.16,0.16 0 1,1 -0.32,0z"
     transform="matrix(1,0,0,-1,14.6000002,7.0732759)"
     fill="rgb(255,255,255)"
     stroke="rgb(0,0,0)"
     stroke-width="0.0010cm"
     stroke-linecap="round"
     stroke-linejoin="round"
     id="path6"
     style="fill:#ffffff;fill-opacity:1;stroke:#000000;stroke-opacity:1;stroke-width:0.01;stroke-miterlimit:4;stroke-dasharray:none" /></svg>
