<?xml version="1.0" encoding="UTF-8" standalone="no"?>
<svg
   xmlns:shaper="http://www.shapertools.com/namespaces/shaper"
   xmlns:dc="http://purl.org/dc/elements/1.1/"
   xmlns:cc="http://creativecommons.org/ns#"
   xmlns:rdf="http://www.w3.org/1999/02/22-rdf-syntax-ns#"
   xmlns:svg="http://www.w3.org/2000/svg"
   xmlns="http://www.w3.org/2000/svg"
   xmlns:sodipodi="http://sodipodi.sourceforge.net/DTD/sodipodi-0.dtd"
   xmlns:inkscape="http://www.inkscape.org/namespaces/inkscape"
   shaper:fusionaddin="version:1.8.0"
   width="14.4798828cm"
   height="15.3cm"
   version="1.1"
   x="0cm"
   y="0cm"
   viewBox="0 0 14.4798828 15.3"
   enable-background="new 0 0 14.4798828 15.3"
   xml:space="preserve"
   id="svg1208"
   sodipodi:docname="bottom.svg"
   inkscape:version="1.0.1 (3bc2e813f5, 2020-09-07)"><metadata
     id="metadata1214"><rdf:RDF><cc:Work
         rdf:about=""><dc:format>image/svg+xml</dc:format><dc:type
           rdf:resource="http://purl.org/dc/dcmitype/StillImage" /></cc:Work></rdf:RDF></metadata><defs
     id="defs1212" /><sodipodi:namedview
     pagecolor="#ffffff"
     bordercolor="#666666"
     borderopacity="1"
     objecttolerance="10"
     gridtolerance="10"
     guidetolerance="10"
     inkscape:pageopacity="0"
     inkscape:pageshadow="2"
     inkscape:window-width="3440"
     inkscape:window-height="1377"
     id="namedview1210"
     showgrid="false"
     inkscape:zoom="1.2325842"
     inkscape:cx="229.03901"
     inkscape:cy="322.16378"
     inkscape:window-x="1072"
     inkscape:window-y="-8"
     inkscape:window-maximized="1"
     inkscape:current-layer="svg1208" /><path
     d="M-5.7765439,7.45 L-5.7765439,5.755575 A3.8,3.8 0 0,0 -6.0298306,4.3914546 L-7.0832462,1.652574 A2.9,2.9 158.962489 0,1 -7.2765439,0.6115347 L-7.2765439,0.3371276 A2.9,2.9 180 0,1 -7.0481677,-0.7908913 L-5.5104197,-4.432926 A1.7,1.7 22.8905517 0,0 -5.3765439,-5.0941785 L-5.3765439,-7.45 A0.2,0.2 180 0,1 -5.1765439,-7.65 L3.1606807,-7.65 A5.8,5.8 270 0,1 6.0606807,-6.8729473 L7.1033389,-6.2709684 A0.2,0.2 300 0,1 7.1765439,-5.9977633 L5.1359714,-2.463388 A4.85,4.85 210 0,0 4.5826493,0.9240602 L5.3321482,4.6258458 A5.15,5.15 348.5540793 0,1 5.4345691,5.6478269 L5.4345691,7.45 A0.2,0.2 0 0,1 5.2345691,7.65 L-5.5765439,7.65 A0.2,0.2 90 0,1 -5.7765439,7.45z"
     transform="matrix(1,0,0,-1,7.2765439,7.65)"
     fill="rgb(0,0,0)"
     stroke-linecap="round"
     stroke-linejoin="round"
     id="path1176"
     style="fill:#ffffff;fill-opacity:1;stroke:#000000;stroke-opacity:1;stroke-width:0.01;stroke-miterlimit:4;stroke-dasharray:none" /><path
     d="M-5.1365439,-6.0500002 a0.16,0.16 0 1,1 0.32,0 a0.16,0.16 0 1,1 -0.32,0z"
     transform="matrix(1,0,0,-1,7.2765439,7.65)"
     fill="rgb(255,255,255)"
     stroke="rgb(0,0,0)"
     stroke-width="0.0010cm"
     stroke-linecap="round"
     stroke-linejoin="round"
     id="path1178"
     style="fill:#ffffff;fill-opacity:1;stroke:#000000;stroke-opacity:1;stroke-width:0.01;stroke-miterlimit:4;stroke-dasharray:none" /><path
     d="M-3.8850827,-6.0828463 a0.12645,0.12645 0 1,1 0.2529,0 a0.12645,0.12645 0 1,1 -0.2529,0z"
     transform="matrix(1,0,0,-1,7.2765439,7.65)"
     fill="rgb(255,255,255)"
     stroke="rgb(0,0,0)"
     stroke-width="0.0010cm"
     stroke-linecap="round"
     stroke-linejoin="round"
     id="path1180"
     style="fill:#ffffff;fill-opacity:1;stroke:#000000;stroke-opacity:1;stroke-width:0.01;stroke-miterlimit:4;stroke-dasharray:none" /><path
     d="M-1.1900032,-6.0828463 a0.12645,0.12645 0 1,1 0.2529,0 a0.12645,0.12645 0 1,1 -0.2529,0z"
     transform="matrix(1,0,0,-1,7.2765439,7.65)"
     fill="rgb(255,255,255)"
     stroke="rgb(0,0,0)"
     stroke-width="0.0010cm"
     stroke-linecap="round"
     stroke-linejoin="round"
     id="path1182"
     style="fill:#ffffff;fill-opacity:1;stroke:#000000;stroke-opacity:1;stroke-width:0.01;stroke-miterlimit:4;stroke-dasharray:none" /><path
     d="M3.6067442,-6.0828463 a0.12645,0.12645 0 1,1 0.2529,0 a0.12645,0.12645 0 1,1 -0.2529,0z"
     transform="matrix(1,0,0,-1,7.2765439,7.65)"
     fill="rgb(255,255,255)"
     stroke="rgb(0,0,0)"
     stroke-width="0.0010cm"
     stroke-linecap="round"
     stroke-linejoin="round"
     id="path1184"
     style="fill:#ffffff;fill-opacity:1;stroke:#000000;stroke-opacity:1;stroke-width:0.01;stroke-miterlimit:4;stroke-dasharray:none" /><path
     d="M-5.1765439,-6.7000002 L-0.1265439,-6.7000002 A0.15,0.15 90 0,0 0.0234561,-6.8500002 L0.0234561,-7.0500002 A0.15,0.15 0 0,0 -0.1265439,-7.2000002 L-5.1765439,-7.2000002 -5.1765439,-6.7000002z"
     transform="matrix(1,0,0,-1,7.2765439,7.65)"
     fill="rgb(255,255,255)"
     stroke="rgb(0,0,0)"
     stroke-width="0.0010cm"
     stroke-linecap="round"
     stroke-linejoin="round"
     id="path1186"
     style="fill:#ffffff;fill-opacity:1;stroke:#000000;stroke-opacity:1;stroke-width:0.01;stroke-miterlimit:4;stroke-dasharray:none" /><path
     d="M-0.1265439,-5.5000002 L-5.1765439,-5.5000002 -5.1765439,-5.0000002 -0.1265439,-5.0000002 A0.15,0.15 90 0,0 0.0234561,-5.1500002 L0.0234561,-5.3500002 A0.15,0.15 0 0,0 -0.1265439,-5.5000002z"
     transform="matrix(1,0,0,-1,7.2765439,7.65)"
     fill="rgb(255,255,255)"
     stroke="rgb(0,0,0)"
     stroke-width="0.0010cm"
     stroke-linecap="round"
     stroke-linejoin="round"
     id="path1188"
     style="fill:#ffffff;fill-opacity:1;stroke:#000000;stroke-opacity:1;stroke-width:0.01;stroke-miterlimit:4;stroke-dasharray:none" /><path
     d="M0.4734562,-5.4500002 L1.7734562,-5.4500002 A0.15,0.15 90 0,0 1.9234562,-5.6000002 L1.9234562,-6.2000002 A0.15,0.15 0 0,0 1.7734562,-6.3500002 L0.4734562,-6.3500002 A0.15,0.15 270 0,0 0.3234562,-6.2000002 L0.3234562,-5.6000002 A0.15,0.15 180 0,0 0.4734562,-5.4500002z"
     transform="matrix(1,0,0,-1,7.2765439,7.65)"
     fill="rgb(255,255,255)"
     stroke="rgb(0,0,0)"
     stroke-width="0.0010cm"
     stroke-linecap="round"
     stroke-linejoin="round"
     id="path1190"
     style="fill:#ffffff;fill-opacity:1;stroke:#000000;stroke-opacity:1;stroke-width:0.01;stroke-miterlimit:4;stroke-dasharray:none" /><path
     d="M4.8634561,6.75 a0.16,0.16 0 1,1 0.32,0 a0.16,0.16 0 1,1 -0.32,0z"
     transform="matrix(1,0,0,-1,7.2765439,7.65)"
     fill="rgb(255,255,255)"
     stroke="rgb(0,0,0)"
     stroke-width="0.0010cm"
     stroke-linecap="round"
     stroke-linejoin="round"
     id="path1192"
     style="fill:#ffffff;fill-opacity:1;stroke:#000000;stroke-opacity:1;stroke-width:0.01;stroke-miterlimit:4;stroke-dasharray:none" /><path
     d="M2.6634561,-1.65 a0.16,0.16 0 1,1 0.32,0 a0.16,0.16 0 1,1 -0.32,0z"
     transform="matrix(1,0,0,-1,7.2765439,7.65)"
     fill="rgb(255,255,255)"
     stroke="rgb(0,0,0)"
     stroke-width="0.0010cm"
     stroke-linecap="round"
     stroke-linejoin="round"
     id="path1194"
     style="fill:#ffffff;fill-opacity:1;stroke:#000000;stroke-opacity:1;stroke-width:0.01;stroke-miterlimit:4;stroke-dasharray:none" /><path
     d="M2.5235982,-5.6333752 a0.16,0.16 0 1,1 0.32,0 a0.16,0.16 0 1,1 -0.32,0z"
     transform="matrix(1,0,0,-1,7.2765439,7.65)"
     fill="rgb(255,255,255)"
     stroke="rgb(0,0,0)"
     stroke-width="0.0010cm"
     stroke-linecap="round"
     stroke-linejoin="round"
     id="path1196"
     style="fill:#ffffff;fill-opacity:1;stroke:#000000;stroke-opacity:1;stroke-width:0.01;stroke-miterlimit:4;stroke-dasharray:none" /><path
     d="M3.6634561,0.35 a0.16,0.16 0 1,1 0.32,0 a0.16,0.16 0 1,1 -0.32,0z"
     transform="matrix(1,0,0,-1,7.2765439,7.65)"
     fill="rgb(255,255,255)"
     stroke="rgb(0,0,0)"
     stroke-width="0.0010cm"
     stroke-linecap="round"
     stroke-linejoin="round"
     id="path1198"
     style="fill:#ffffff;fill-opacity:1;stroke:#000000;stroke-opacity:1;stroke-width:0.01;stroke-miterlimit:4;stroke-dasharray:none" /><path
     d="M-6.9365439,0.45 a0.16,0.16 0 1,1 0.32,0 a0.16,0.16 0 1,1 -0.32,0z"
     transform="matrix(1,0,0,-1,7.2765439,7.65)"
     fill="rgb(255,255,255)"
     stroke="rgb(0,0,0)"
     stroke-width="0.0010cm"
     stroke-linecap="round"
     stroke-linejoin="round"
     id="path1200"
     style="fill:#ffffff;fill-opacity:1;stroke:#000000;stroke-opacity:1;stroke-width:0.01;stroke-miterlimit:4;stroke-dasharray:none" /><path
     d="M-5.4365439,6.75 a0.16,0.16 0 1,1 0.32,0 a0.16,0.16 0 1,1 -0.32,0z"
     transform="matrix(1,0,0,-1,7.2765439,7.65)"
     fill="rgb(255,255,255)"
     stroke="rgb(0,0,0)"
     stroke-width="0.0010cm"
     stroke-linecap="round"
     stroke-linejoin="round"
     id="path1202"
     style="fill:#ffffff;fill-opacity:1;stroke:#000000;stroke-opacity:1;stroke-width:0.01;stroke-miterlimit:4;stroke-dasharray:none" /><path
     d="M4.1634561,2.35 a0.16,0.16 0 1,1 0.32,0 a0.16,0.16 0 1,1 -0.32,0z"
     transform="matrix(1,0,0,-1,7.2765439,7.65)"
     fill="rgb(255,255,255)"
     stroke="rgb(0,0,0)"
     stroke-width="0.0010cm"
     stroke-linecap="round"
     stroke-linejoin="round"
     id="path1204"
     style="fill:#ffffff;fill-opacity:1;stroke:#000000;stroke-opacity:1;stroke-width:0.01;stroke-miterlimit:4;stroke-dasharray:none" /><path
     d="M-6.4865439,2.45 a0.16,0.16 0 1,1 0.32,0 a0.16,0.16 0 1,1 -0.32,0z"
     transform="matrix(1,0,0,-1,7.2765439,7.65)"
     fill="rgb(255,255,255)"
     stroke="rgb(0,0,0)"
     stroke-width="0.0010cm"
     stroke-linecap="round"
     stroke-linejoin="round"
     id="path1206"
     style="fill:#ffffff;fill-opacity:1;stroke:#000000;stroke-opacity:1;stroke-width:0.01;stroke-miterlimit:4;stroke-dasharray:none" /></svg>
