<?xml version="1.0" encoding="UTF-8" standalone="no"?>
<svg
   shaper:fusionaddin="version:1.8.0"
   width="14.4798828cm"
   height="15.3cm"
   version="1.1"
   x="0cm"
   y="0cm"
   viewBox="0 0 14.4798828 15.3"
   enable-background="new 0 0 14.4798828 15.3"
   xml:space="preserve"
   id="svg1961"
   sodipodi:docname="top-one-path.svg"
   inkscape:version="1.2.2 (b0a8486541, 2022-12-01)"
   xmlns:inkscape="http://www.inkscape.org/namespaces/inkscape"
   xmlns:sodipodi="http://sodipodi.sourceforge.net/DTD/sodipodi-0.dtd"
   xmlns="http://www.w3.org/2000/svg"
   xmlns:svg="http://www.w3.org/2000/svg"
   xmlns:rdf="http://www.w3.org/1999/02/22-rdf-syntax-ns#"
   xmlns:cc="http://creativecommons.org/ns#"
   xmlns:dc="http://purl.org/dc/elements/1.1/"
   xmlns:shaper="http://www.shapertools.com/namespaces/shaper"><metadata
     id="metadata1967"><rdf:RDF><cc:Work
         rdf:about=""><dc:format>image/svg+xml</dc:format><dc:type
           rdf:resource="http://purl.org/dc/dcmitype/StillImage" /></cc:Work></rdf:RDF></metadata><defs
     id="defs1965" /><sodipodi:namedview
     pagecolor="#ffffff"
     bordercolor="#666666"
     borderopacity="1"
     objecttolerance="10"
     gridtolerance="10"
     guidetolerance="10"
     inkscape:pageopacity="0"
     inkscape:pageshadow="2"
     inkscape:window-width="1920"
     inkscape:window-height="1011"
     id="namedview1963"
     showgrid="false"
     inkscape:zoom="0.8715686"
     inkscape:cx="-5.1631048"
     inkscape:cy="209.96626"
     inkscape:window-x="0"
     inkscape:window-y="0"
     inkscape:window-maximized="1"
     inkscape:current-layer="g537"
     inkscape:showpageshadow="0"
     inkscape:pagecheckerboard="0"
     inkscape:deskcolor="#d1d1d1"
     inkscape:document-units="cm" /><g
     id="g537"><path
       id="path1873"
       style="display:inline;fill:#000000;fill-opacity:1;stroke:#000000;stroke-width:0.01;stroke-miterlimit:4;stroke-dasharray:none;stroke-opacity:1"
       d="M -5.5765442 10.435 A 0.2 0.2 0 0 1 -5.776532 10.235012 L -5.776532 8.5405937 A 3.8 3.8 0 0 0 -6.0298499 7.1764392 L -7.0832223 4.4375883 A 2.9 2.9 0 0 1 -7.2765438 3.3965149 L -7.2765438 3.122113 A 2.9 2.9 0 0 1 -7.0481856 1.9941199 L -5.5103984 -1.6479317 A 1.7 1.7 0 0 0 -5.3765564 -2.3091833 L -5.3765564 -4.6650085 A 0.2 0.2 0 0 1 -5.1765686 -4.8649963 L 3.1607003 -4.8649963 A 5.8 5.8 0 0 1 6.0606783 -4.0879378 L 7.1033537 -3.4859591 A 0.2 0.2 0 0 1 7.1765275 -3.2127458 L 5.1359802 0.32161214 A 4.85 4.85 0 0 0 4.582629 3.709054 L 5.3321439 7.4108435 A 5.15 5.15 0 0 1 5.4345666 8.4328483 L 5.4345666 10.235012 A 0.2 0.2 0 0 1 5.2345788 10.435 L -5.5765442 10.435 z M -4.7765414 9.9349788 L -3.3765235 9.9349788 L -3.3765235 8.5350126 L -4.7765414 8.5350126 L -4.7765414 9.9349788 z M -2.7765601 9.9349788 L -1.3765422 9.9349788 L -1.3765422 8.5350126 L -2.7765601 8.5350126 L -2.7765601 9.9349788 z M -0.77652712 9.9349788 L 0.62343911 9.9349788 L 0.62343911 8.5350126 L -0.77652712 8.5350126 L -0.77652712 9.9349788 z M 1.2234542 9.9349788 L 2.6234721 9.9349788 L 2.6234721 8.5350126 L 1.2234542 8.5350126 L 1.2234542 9.9349788 z M 3.2234354 9.9349788 L 4.6234534 9.9349788 L 4.6234534 8.5350126 L 3.2234354 8.5350126 L 3.2234354 9.9349788 z M -5.28974 9.6944767 A 0.16 0.16 0 0 0 -5.1165206 9.5350033 A 0.16001607 0.16001607 0 1 0 -5.4365528 9.5350033 A 0.16 0.16 0 0 0 -5.28974 9.6944767 z M 5.0102514 9.6944767 A 0.16 0.16 0 0 0 5.1834708 9.5350033 A 0.16001607 0.16001607 0 0 0 4.8634387 9.5350033 A 0.16 0.16 0 0 0 5.0102514 9.6944767 z M -4.7765414 7.9349976 L -3.3765235 7.9349976 L -3.3765235 6.5349797 L -4.7765414 6.5349797 L -4.7765414 7.9349976 z M -2.7765601 7.9349976 L -1.3765422 7.9349976 L -1.3765422 6.5349797 L -2.7765601 6.5349797 L -2.7765601 7.9349976 z M -0.77652712 7.9349976 L 0.62343911 7.9349976 L 0.62343911 6.5349797 L -0.77652712 6.5349797 L -0.77652712 7.9349976 z M 1.2234542 7.9349976 L 2.6234721 7.9349976 L 2.6234721 6.5349797 L 1.2234542 6.5349797 L 1.2234542 7.9349976 z M 3.2234354 7.9349976 L 4.6234534 7.9349976 L 4.6234534 6.5349797 L 3.2234354 6.5349797 L 3.2234354 7.9349976 z M -5.776532 5.9350163 L -4.3765658 5.9350163 L -4.3765658 4.5349984 L -5.776532 4.5349984 L -5.776532 5.9350163 z M -3.7765507 5.9350163 L -2.3765328 5.9350163 L -2.3765328 4.5349984 L -3.7765507 4.5349984 L -3.7765507 5.9350163 z M -1.7765694 5.9350163 L -0.37655153 5.9350163 L -0.37655153 4.5349984 L -1.7765694 4.5349984 L -1.7765694 5.9350163 z M 0.22346352 5.9350163 L 1.6234814 5.9350163 L 1.6234814 4.5349984 L 0.22346352 4.5349984 L 0.22346352 5.9350163 z M 2.2234448 5.9350163 L 3.6234627 5.9350163 L 3.6234627 4.5349984 L 2.2234448 4.5349984 L 2.2234448 5.9350163 z M -6.3397534 5.3944291 A 0.16 0.16 0 0 0 -6.166534 5.2350073 A 0.16001607 0.16001607 0 0 0 -6.4865662 5.2350073 A 0.16 0.16 0 0 0 -6.3397534 5.3944291 z M 4.3102425 5.2944352 A 0.16 0.16 0 0 0 4.4834619 5.1350134 A 0.16 0.16 0 0 0 4.1634814 5.1350134 A 0.16 0.16 0 0 0 4.3102425 5.2944352 z M -6.2765532 3.9349833 L -4.8765353 3.9349833 L -4.8765353 2.5350171 L -6.2765532 2.5350171 L -6.2765532 3.9349833 z M -4.2765202 3.9349833 L -2.876554 3.9349833 L -2.876554 2.5350171 L -4.2765202 2.5350171 L -4.2765202 3.9349833 z M -2.2765389 3.9349833 L -0.87652101 3.9349833 L -0.87652101 2.5350171 L -2.2765389 2.5350171 L -2.2765389 3.9349833 z M -0.27655763 3.9349833 L 1.1234603 3.9349833 L 1.1234603 2.5350171 L -0.27655763 2.5350171 L -0.27655763 3.9349833 z M 1.7234753 3.9349833 L 3.1234416 3.9349833 L 3.1234416 2.5350171 L 1.7234753 2.5350171 L 1.7234753 3.9349833 z M -6.7897518 3.3944478 A 0.16 0.16 0 0 0 -6.6165324 3.2349744 A 0.16001607 0.16001607 0 1 0 -6.9365646 3.2349744 A 0.16 0.16 0 0 0 -6.7897518 3.3944478 z M 3.8102213 3.2944539 A 0.16 0.16 0 0 0 3.9834407 3.1349805 A 0.16 0.16 0 1 0 3.6634603 3.1349805 A 0.16 0.16 0 0 0 3.8102213 3.2944539 z M -5.776532 1.935002 L -4.3765658 1.935002 L -4.3765658 0.53498413 L -5.776532 0.53498413 L -5.776532 1.935002 z M -3.7765507 1.935002 L -2.3765328 1.935002 L -2.3765328 0.53498413 L -3.7765507 0.53498413 L -3.7765507 1.935002 z M -1.7765694 1.935002 L -0.37655153 1.935002 L -0.37655153 0.53498413 L -1.7765694 0.53498413 L -1.7765694 1.935002 z M 0.22346352 1.935002 L 1.6234814 1.935002 L 1.6234814 0.53498413 L 0.22346352 0.53498413 L 0.22346352 1.935002 z M 2.8102307 1.2944727 A 0.16 0.16 0 0 0 2.9834501 1.1349992 A 0.16 0.16 0 1 0 2.6634696 1.1349992 A 0.16 0.16 0 0 0 2.8102307 1.2944727 z M 4.1023999 0.24766317 L 4.788973 -0.94156657 L 3.5765405 -1.6415238 L 2.8899674 -0.45229411 L 4.1023999 0.24766317 z M -5.2765625 -0.064979248 L -3.8765446 -0.064979248 L -3.8765446 -1.4649972 L -5.2765625 -1.4649972 L -5.2765625 -0.064979248 z M -3.2765296 -0.064979248 L -1.8765633 -0.064979248 L -1.8765633 -1.4649972 L -3.2765296 -1.4649972 L -3.2765296 -0.064979248 z M -1.2765483 -0.064979248 L 0.12346963 -0.064979248 L 0.12346963 -1.4649972 L -1.2765483 -1.4649972 L -1.2765483 -0.064979248 z M 0.72343301 -0.064979248 L 2.1234509 -0.064979248 L 2.1234509 -1.4649972 L 0.72343301 -1.4649972 L 0.72343301 -0.064979248 z M 5.0890063 -1.4611731 L 5.7889636 -2.6736056 L 4.5765312 -3.3736145 L 3.8765222 -2.161182 L 5.0890063 -1.4611731 z M 0.9602661 -2.1055265 A 0.16 0.16 0 0 0 1.1334338 -2.265 A 0.16 0.16 0 0 0 0.81345335 -2.265 A 0.16 0.16 0 0 0 0.9602661 -2.1055265 z M -5.1765686 -2.265 L 0.32345742 -2.265 L 0.32345742 -2.5350094 L -5.1765686 -2.5350094 L -5.1765686 -2.265 z M 2.6703943 -2.6889018 A 0.16 0.16 0 0 0 2.8436137 -2.8483752 A 0.16001607 0.16001607 0 1 0 2.5235815 -2.8483752 A 0.16 0.16 0 0 0 2.6703943 -2.6889018 z M -4.9897583 -3.1055688 A 0.16 0.16 0 0 0 -4.8165389 -3.2649906 A 0.16 0.16 0 1 0 -5.1365194 -3.2649906 A 0.16 0.16 0 0 0 -4.9897583 -3.1055688 z M -5.1765686 -4.0350212 L 0.32345742 -4.0350212 L 0.32345742 -4.3049788 L -5.1765686 -4.3049788 L -5.1765686 -4.0350212 z M 1.910234 -4.1055595 A 0.16 0.16 0 0 0 2.0834534 -4.2649813 A 0.16 0.16 0 1 0 1.7634729 -4.2649813 A 0.16 0.16 0 0 0 1.910234 -4.1055595 z "
       transform="matrix(1,0,0,-1,7.2765438,10.435)" /></g></svg>
