<?xml version="1.0" encoding="UTF-8" standalone="no"?>
<svg
   xmlns:shaper="http://www.shapertools.com/namespaces/shaper"
   xmlns:dc="http://purl.org/dc/elements/1.1/"
   xmlns:cc="http://creativecommons.org/ns#"
   xmlns:rdf="http://www.w3.org/1999/02/22-rdf-syntax-ns#"
   xmlns:svg="http://www.w3.org/2000/svg"
   xmlns="http://www.w3.org/2000/svg"
   xmlns:sodipodi="http://sodipodi.sourceforge.net/DTD/sodipodi-0.dtd"
   xmlns:inkscape="http://www.inkscape.org/namespaces/inkscape"
   shaper:fusionaddin="version:1.8.0"
   width="14.4798828cm"
   height="15.3cm"
   version="1.1"
   x="0cm"
   y="0cm"
   viewBox="0 0 14.4798828 15.3"
   enable-background="new 0 0 14.4798828 15.3"
   xml:space="preserve"
   id="svg1961"
   sodipodi:docname="top.svg"
   inkscape:version="1.0.1 (3bc2e813f5, 2020-09-07)"><metadata
     id="metadata1967"><rdf:RDF><cc:Work
         rdf:about=""><dc:format>image/svg+xml</dc:format><dc:type
           rdf:resource="http://purl.org/dc/dcmitype/StillImage" /></cc:Work></rdf:RDF></metadata><defs
     id="defs1965" /><sodipodi:namedview
     pagecolor="#ffffff"
     bordercolor="#666666"
     borderopacity="1"
     objecttolerance="10"
     gridtolerance="10"
     guidetolerance="10"
     inkscape:pageopacity="0"
     inkscape:pageshadow="2"
     inkscape:window-width="1080"
     inkscape:window-height="1857"
     id="namedview1963"
     showgrid="false"
     inkscape:zoom="1.7431372"
     inkscape:cx="242.9438"
     inkscape:cy="289.13386"
     inkscape:window-x="-8"
     inkscape:window-y="-8"
     inkscape:window-maximized="1"
     inkscape:current-layer="svg1961" /><path
     d="M5.2345691,10.4350001 L-5.5765439,10.4350001 A0.2,0.2 90 0,1 -5.7765439,10.2350001 L-5.7765439,8.5405751 A3.8,3.8 0 0,0 -6.0298306,7.1764547 L-7.0832462,4.4375741 A2.9,2.9 158.962489 0,1 -7.2765439,3.3965348 L-7.2765439,3.1221277 A2.9,2.9 180 0,1 -7.0481677,1.9941088 L-5.5104197,-1.647926 A1.7,1.7 22.8905517 0,0 -5.3765439,-2.3091784 L-5.3765439,-4.6649999 A0.2,0.2 180 0,1 -5.1765439,-4.8649999 L3.1606807,-4.8649999 A5.8,5.8 270 0,1 6.0606807,-4.0879473 L7.1033389,-3.4859683 A0.2,0.2 300 0,1 7.1765439,-3.2127632 L5.1359714,0.3216121 A4.85,4.85 210 0,0 4.5826493,3.7090603 L5.3321482,7.4108459 A5.15,5.15 348.5540793 0,1 5.4345691,8.432827 L5.4345691,10.2350001 A0.2,0.2 0 0,1 5.2345691,10.4350001z"
     transform="matrix(1,0,0,-1,7.2765439,10.4350001)"
     fill="rgb(0,0,0)"
     shaper:cutDepth="0.3cm"
     stroke-linecap="round"
     stroke-linejoin="round"
     id="path1873"
     style="fill:#ffffff;fill-opacity:1;stroke:#000000;stroke-opacity:1;stroke-width:0.01;stroke-miterlimit:4;stroke-dasharray:none" /><path
     d="M1.7634562,-4.2650001 a0.16,0.16 0 1,1 0.32,0 a0.16,0.16 0 1,1 -0.32,0z"
     transform="matrix(1,0,0,-1,7.2765439,10.4350001)"
     fill="rgb(255,255,255)"
     stroke="rgb(0,0,0)"
     stroke-width="0.0010cm"
     stroke-linecap="round"
     stroke-linejoin="round"
     shaper:cutDepth="0.3cm"
     id="path1875"
     style="fill:#ffffff;fill-opacity:1;stroke:#000000;stroke-opacity:1;stroke-width:0.01;stroke-miterlimit:4;stroke-dasharray:none" /><path
     d="M0.8134562,-2.2650001 a0.16,0.16 0 1,1 0.32,0 a0.16,0.16 0 1,1 -0.32,0z"
     transform="matrix(1,0,0,-1,7.2765439,10.4350001)"
     fill="rgb(255,255,255)"
     stroke="rgb(0,0,0)"
     stroke-width="0.0010cm"
     stroke-linecap="round"
     stroke-linejoin="round"
     shaper:cutDepth="0.3cm"
     id="path1877"
     style="fill:#ffffff;fill-opacity:1;stroke:#000000;stroke-opacity:1;stroke-width:0.01;stroke-miterlimit:4;stroke-dasharray:none" /><path
     d="M-5.1365439,-3.2650001 a0.16,0.16 0 1,1 0.32,0 a0.16,0.16 0 1,1 -0.32,0z"
     transform="matrix(1,0,0,-1,7.2765439,10.4350001)"
     fill="rgb(255,255,255)"
     stroke="rgb(0,0,0)"
     stroke-width="0.0010cm"
     stroke-linecap="round"
     stroke-linejoin="round"
     shaper:cutDepth="0.3cm"
     id="path1879"
     style="fill:#ffffff;fill-opacity:1;stroke:#000000;stroke-opacity:1;stroke-width:0.01;stroke-miterlimit:4;stroke-dasharray:none" /><path
     d="M1.6234561,1.9350001 L0.2234561,1.9350001 0.2234561,0.5350001 1.6234561,0.5350001 1.6234561,1.9350001z"
     transform="matrix(1,0,0,-1,7.2765439,10.4350001)"
     fill="rgb(255,255,255)"
     stroke="rgb(0,0,0)"
     stroke-width="0.0010cm"
     stroke-linecap="round"
     stroke-linejoin="round"
     shaper:cutDepth="0.3cm"
     id="path1881"
     style="fill:#ffffff;fill-opacity:1;stroke:#000000;stroke-opacity:1;stroke-width:0.01;stroke-miterlimit:4;stroke-dasharray:none" /><path
     d="M1.1234561,2.5350001 L1.1234561,3.9350001 -0.2765439,3.9350001 -0.2765439,2.5350001 1.1234561,2.5350001z"
     transform="matrix(1,0,0,-1,7.2765439,10.4350001)"
     fill="rgb(255,255,255)"
     stroke="rgb(0,0,0)"
     stroke-width="0.0010cm"
     stroke-linecap="round"
     stroke-linejoin="round"
     shaper:cutDepth="0.3cm"
     id="path1883"
     style="fill:#ffffff;fill-opacity:1;stroke:#000000;stroke-opacity:1;stroke-width:0.01;stroke-miterlimit:4;stroke-dasharray:none" /><path
     d="M-0.7765439,7.9350001 L-0.7765439,6.5350001 0.6234561,6.5350001 0.6234561,7.9350001 -0.7765439,7.9350001z"
     transform="matrix(1,0,0,-1,7.2765439,10.4350001)"
     fill="rgb(255,255,255)"
     stroke="rgb(0,0,0)"
     stroke-width="0.0010cm"
     stroke-linecap="round"
     stroke-linejoin="round"
     shaper:cutDepth="0.3cm"
     id="path1885"
     style="fill:#ffffff;fill-opacity:1;stroke:#000000;stroke-opacity:1;stroke-width:0.01;stroke-miterlimit:4;stroke-dasharray:none" /><path
     d="M2.6234561,9.9350001 L1.2234561,9.9350001 1.2234561,8.5350001 2.6234561,8.5350001 2.6234561,9.9350001z"
     transform="matrix(1,0,0,-1,7.2765439,10.4350001)"
     fill="rgb(255,255,255)"
     stroke="rgb(0,0,0)"
     stroke-width="0.0010cm"
     stroke-linecap="round"
     stroke-linejoin="round"
     shaper:cutDepth="0.3cm"
     id="path1887"
     style="fill:#ffffff;fill-opacity:1;stroke:#000000;stroke-opacity:1;stroke-width:0.01;stroke-miterlimit:4;stroke-dasharray:none" /><path
     d="M-5.7765439,4.5350001 L-4.3765439,4.5350001 -4.3765439,5.9350001 -5.7765439,5.9350001 -5.7765439,4.5350001z"
     transform="matrix(1,0,0,-1,7.2765439,10.4350001)"
     fill="rgb(255,255,255)"
     stroke="rgb(0,0,0)"
     stroke-width="0.0010cm"
     stroke-linecap="round"
     stroke-linejoin="round"
     shaper:cutDepth="0.3cm"
     id="path1889"
     style="fill:#ffffff;fill-opacity:1;stroke:#000000;stroke-opacity:1;stroke-width:0.01;stroke-miterlimit:4;stroke-dasharray:none" /><path
     d="M2.6234561,6.5350001 L2.6234561,7.9350001 1.2234561,7.9350001 1.2234561,6.5350001 2.6234561,6.5350001z"
     transform="matrix(1,0,0,-1,7.2765439,10.4350001)"
     fill="rgb(255,255,255)"
     stroke="rgb(0,0,0)"
     stroke-width="0.0010cm"
     stroke-linecap="round"
     stroke-linejoin="round"
     shaper:cutDepth="0.3cm"
     id="path1891"
     style="fill:#ffffff;fill-opacity:1;stroke:#000000;stroke-opacity:1;stroke-width:0.01;stroke-miterlimit:4;stroke-dasharray:none" /><path
     d="M-1.7765439,4.5350001 L-0.3765439,4.5350001 -0.3765439,5.9350001 -1.7765439,5.9350001 -1.7765439,4.5350001z"
     transform="matrix(1,0,0,-1,7.2765439,10.4350001)"
     fill="rgb(255,255,255)"
     stroke="rgb(0,0,0)"
     stroke-width="0.0010cm"
     stroke-linecap="round"
     stroke-linejoin="round"
     shaper:cutDepth="0.3cm"
     id="path1893"
     style="fill:#ffffff;fill-opacity:1;stroke:#000000;stroke-opacity:1;stroke-width:0.01;stroke-miterlimit:4;stroke-dasharray:none" /><path
     d="M-4.7765439,7.9350001 L-4.7765439,6.5350001 -3.3765439,6.5350001 -3.3765439,7.9350001 -4.7765439,7.9350001z"
     transform="matrix(1,0,0,-1,7.2765439,10.4350001)"
     fill="rgb(255,255,255)"
     stroke="rgb(0,0,0)"
     stroke-width="0.0010cm"
     stroke-linecap="round"
     stroke-linejoin="round"
     shaper:cutDepth="0.3cm"
     id="path1895"
     style="fill:#ffffff;fill-opacity:1;stroke:#000000;stroke-opacity:1;stroke-width:0.01;stroke-miterlimit:4;stroke-dasharray:none" /><path
     d="M-4.8765439,3.9350001 L-6.2765439,3.9350001 -6.2765439,2.5350001 -4.8765439,2.5350001 -4.8765439,3.9350001z"
     transform="matrix(1,0,0,-1,7.2765439,10.4350001)"
     fill="rgb(255,255,255)"
     stroke="rgb(0,0,0)"
     stroke-width="0.0010cm"
     stroke-linecap="round"
     stroke-linejoin="round"
     shaper:cutDepth="0.3cm"
     id="path1897"
     style="fill:#ffffff;fill-opacity:1;stroke:#000000;stroke-opacity:1;stroke-width:0.01;stroke-miterlimit:4;stroke-dasharray:none" /><path
     d="M4.6234561,9.9350001 L3.2234561,9.9350001 3.2234561,8.5350001 4.6234561,8.5350001 4.6234561,9.9350001z"
     transform="matrix(1,0,0,-1,7.2765439,10.4350001)"
     fill="rgb(255,255,255)"
     stroke="rgb(0,0,0)"
     stroke-width="0.0010cm"
     stroke-linecap="round"
     stroke-linejoin="round"
     shaper:cutDepth="0.3cm"
     id="path1899"
     style="fill:#ffffff;fill-opacity:1;stroke:#000000;stroke-opacity:1;stroke-width:0.01;stroke-miterlimit:4;stroke-dasharray:none" /><path
     d="M-1.7765439,1.9350001 L-1.7765439,0.5350001 -0.3765439,0.5350001 -0.3765439,1.9350001 -1.7765439,1.9350001z"
     transform="matrix(1,0,0,-1,7.2765439,10.4350001)"
     fill="rgb(255,255,255)"
     stroke="rgb(0,0,0)"
     stroke-width="0.0010cm"
     stroke-linecap="round"
     stroke-linejoin="round"
     shaper:cutDepth="0.3cm"
     id="path1901"
     style="fill:#ffffff;fill-opacity:1;stroke:#000000;stroke-opacity:1;stroke-width:0.01;stroke-miterlimit:4;stroke-dasharray:none" /><path
     d="M2.1234561,-1.4649999 L2.1234561,-0.0649999 0.7234561,-0.0649999 0.7234561,-1.4649999 2.1234561,-1.4649999z"
     transform="matrix(1,0,0,-1,7.2765439,10.4350001)"
     fill="rgb(255,255,255)"
     stroke="rgb(0,0,0)"
     stroke-width="0.0010cm"
     stroke-linecap="round"
     stroke-linejoin="round"
     shaper:cutDepth="0.3cm"
     id="path1903"
     style="fill:#ffffff;fill-opacity:1;stroke:#000000;stroke-opacity:1;stroke-width:0.01;stroke-miterlimit:4;stroke-dasharray:none" /><path
     d="M-5.2765439,-1.4649999 L-3.8765439,-1.4649999 -3.8765439,-0.0649999 -5.2765439,-0.0649999 -5.2765439,-1.4649999z"
     transform="matrix(1,0,0,-1,7.2765439,10.4350001)"
     fill="rgb(255,255,255)"
     stroke="rgb(0,0,0)"
     stroke-width="0.0010cm"
     stroke-linecap="round"
     stroke-linejoin="round"
     shaper:cutDepth="0.3cm"
     id="path1905"
     style="fill:#ffffff;fill-opacity:1;stroke:#000000;stroke-opacity:1;stroke-width:0.01;stroke-miterlimit:4;stroke-dasharray:none" /><path
     d="M-1.3765439,9.9350001 L-2.7765439,9.9350001 -2.7765439,8.5350001 -1.3765439,8.5350001 -1.3765439,9.9350001z"
     transform="matrix(1,0,0,-1,7.2765439,10.4350001)"
     fill="rgb(255,255,255)"
     stroke="rgb(0,0,0)"
     stroke-width="0.0010cm"
     stroke-linecap="round"
     stroke-linejoin="round"
     shaper:cutDepth="0.3cm"
     id="path1907"
     style="fill:#ffffff;fill-opacity:1;stroke:#000000;stroke-opacity:1;stroke-width:0.01;stroke-miterlimit:4;stroke-dasharray:none" /><path
     d="M5.7889823,-2.6735952 L5.0889823,-1.4611596 3.8765467,-2.1611596 4.5765467,-3.3735952 5.7889823,-2.6735952z"
     transform="matrix(1,0,0,-1,7.2765439,10.4350001)"
     fill="rgb(255,255,255)"
     stroke="rgb(0,0,0)"
     stroke-width="0.0010cm"
     stroke-linecap="round"
     stroke-linejoin="round"
     shaper:cutDepth="0.3cm"
     id="path1909"
     style="fill:#ffffff;fill-opacity:1;stroke:#000000;stroke-opacity:1;stroke-width:0.01;stroke-miterlimit:4;stroke-dasharray:none" /><path
     d="M1.7234561,2.5350001 L3.1234561,2.5350001 3.1234561,3.9350001 1.7234561,3.9350001 1.7234561,2.5350001z"
     transform="matrix(1,0,0,-1,7.2765439,10.4350001)"
     fill="rgb(255,255,255)"
     stroke="rgb(0,0,0)"
     stroke-width="0.0010cm"
     stroke-linecap="round"
     stroke-linejoin="round"
     shaper:cutDepth="0.3cm"
     id="path1911"
     style="fill:#ffffff;fill-opacity:1;stroke:#000000;stroke-opacity:1;stroke-width:0.01;stroke-miterlimit:4;stroke-dasharray:none" /><path
     d="M-1.8765439,-1.4649999 L-1.8765439,-0.0649999 -3.2765439,-0.0649999 -3.2765439,-1.4649999 -1.8765439,-1.4649999z"
     transform="matrix(1,0,0,-1,7.2765439,10.4350001)"
     fill="rgb(255,255,255)"
     stroke="rgb(0,0,0)"
     stroke-width="0.0010cm"
     stroke-linecap="round"
     stroke-linejoin="round"
     shaper:cutDepth="0.3cm"
     id="path1913"
     style="fill:#ffffff;fill-opacity:1;stroke:#000000;stroke-opacity:1;stroke-width:0.01;stroke-miterlimit:4;stroke-dasharray:none" /><path
     d="M-4.3765439,0.5350001 L-4.3765439,1.9350001 -5.7765439,1.9350001 -5.7765439,0.5350001 -4.3765439,0.5350001z"
     transform="matrix(1,0,0,-1,7.2765439,10.4350001)"
     fill="rgb(255,255,255)"
     stroke="rgb(0,0,0)"
     stroke-width="0.0010cm"
     stroke-linecap="round"
     stroke-linejoin="round"
     shaper:cutDepth="0.3cm"
     id="path1915"
     style="fill:#ffffff;fill-opacity:1;stroke:#000000;stroke-opacity:1;stroke-width:0.01;stroke-miterlimit:4;stroke-dasharray:none" /><path
     d="M-3.7765439,1.9350001 L-3.7765439,0.5350001 -2.3765439,0.5350001 -2.3765439,1.9350001 -3.7765439,1.9350001z"
     transform="matrix(1,0,0,-1,7.2765439,10.4350001)"
     fill="rgb(255,255,255)"
     stroke="rgb(0,0,0)"
     stroke-width="0.0010cm"
     stroke-linecap="round"
     stroke-linejoin="round"
     shaper:cutDepth="0.3cm"
     id="path1917"
     style="fill:#ffffff;fill-opacity:1;stroke:#000000;stroke-opacity:1;stroke-width:0.01;stroke-miterlimit:4;stroke-dasharray:none" /><path
     d="M3.2234561,6.5350001 L4.6234561,6.5350001 4.6234561,7.9350001 3.2234561,7.9350001 3.2234561,6.5350001z"
     transform="matrix(1,0,0,-1,7.2765439,10.4350001)"
     fill="rgb(255,255,255)"
     stroke="rgb(0,0,0)"
     stroke-width="0.0010cm"
     stroke-linecap="round"
     stroke-linejoin="round"
     shaper:cutDepth="0.3cm"
     id="path1919"
     style="fill:#ffffff;fill-opacity:1;stroke:#000000;stroke-opacity:1;stroke-width:0.01;stroke-miterlimit:4;stroke-dasharray:none" /><path
     d="M0.2234561,5.9350001 L0.2234561,4.5350001 1.6234561,4.5350001 1.6234561,5.9350001 0.2234561,5.9350001z"
     transform="matrix(1,0,0,-1,7.2765439,10.4350001)"
     fill="rgb(255,255,255)"
     stroke="rgb(0,0,0)"
     stroke-width="0.0010cm"
     stroke-linecap="round"
     stroke-linejoin="round"
     shaper:cutDepth="0.3cm"
     id="path1921"
     style="fill:#ffffff;fill-opacity:1;stroke:#000000;stroke-opacity:1;stroke-width:0.01;stroke-miterlimit:4;stroke-dasharray:none" /><path
     d="M-2.2765439,2.5350001 L-0.8765439,2.5350001 -0.8765439,3.9350001 -2.2765439,3.9350001 -2.2765439,2.5350001z"
     transform="matrix(1,0,0,-1,7.2765439,10.4350001)"
     fill="rgb(255,255,255)"
     stroke="rgb(0,0,0)"
     stroke-width="0.0010cm"
     stroke-linecap="round"
     stroke-linejoin="round"
     shaper:cutDepth="0.3cm"
     id="path1923"
     style="fill:#ffffff;fill-opacity:1;stroke:#000000;stroke-opacity:1;stroke-width:0.01;stroke-miterlimit:4;stroke-dasharray:none" /><path
     d="M-3.7765439,5.9350001 L-3.7765439,4.5350001 -2.3765439,4.5350001 -2.3765439,5.9350001 -3.7765439,5.9350001z"
     transform="matrix(1,0,0,-1,7.2765439,10.4350001)"
     fill="rgb(255,255,255)"
     stroke="rgb(0,0,0)"
     stroke-width="0.0010cm"
     stroke-linecap="round"
     stroke-linejoin="round"
     shaper:cutDepth="0.3cm"
     id="path1925"
     style="fill:#ffffff;fill-opacity:1;stroke:#000000;stroke-opacity:1;stroke-width:0.01;stroke-miterlimit:4;stroke-dasharray:none" /><path
     d="M-1.3765439,6.5350001 L-1.3765439,7.9350001 -2.7765439,7.9350001 -2.7765439,6.5350001 -1.3765439,6.5350001z"
     transform="matrix(1,0,0,-1,7.2765439,10.4350001)"
     fill="rgb(255,255,255)"
     stroke="rgb(0,0,0)"
     stroke-width="0.0010cm"
     stroke-linecap="round"
     stroke-linejoin="round"
     shaper:cutDepth="0.3cm"
     id="path1927"
     style="fill:#ffffff;fill-opacity:1;stroke:#000000;stroke-opacity:1;stroke-width:0.01;stroke-miterlimit:4;stroke-dasharray:none" /><path
     d="M0.6234561,9.9350001 L-0.7765439,9.9350001 -0.7765439,8.5350001 0.6234561,8.5350001 0.6234561,9.9350001z"
     transform="matrix(1,0,0,-1,7.2765439,10.4350001)"
     fill="rgb(255,255,255)"
     stroke="rgb(0,0,0)"
     stroke-width="0.0010cm"
     stroke-linecap="round"
     stroke-linejoin="round"
     shaper:cutDepth="0.3cm"
     id="path1929"
     style="fill:#ffffff;fill-opacity:1;stroke:#000000;stroke-opacity:1;stroke-width:0.01;stroke-miterlimit:4;stroke-dasharray:none" /><path
     d="M2.2234561,4.5350001 L3.6234561,4.5350001 3.6234561,5.9350001 2.2234561,5.9350001 2.2234561,4.5350001z"
     transform="matrix(1,0,0,-1,7.2765439,10.4350001)"
     fill="rgb(255,255,255)"
     stroke="rgb(0,0,0)"
     stroke-width="0.0010cm"
     stroke-linecap="round"
     stroke-linejoin="round"
     shaper:cutDepth="0.3cm"
     id="path1931"
     style="fill:#ffffff;fill-opacity:1;stroke:#000000;stroke-opacity:1;stroke-width:0.01;stroke-miterlimit:4;stroke-dasharray:none" /><path
     d="M4.7889823,-0.9415444 L4.1023797,0.2476861 2.8899442,-0.4523139 3.5765467,-1.6415444 4.7889823,-0.9415444z"
     transform="matrix(1,0,0,-1,7.2765439,10.4350001)"
     fill="rgb(255,255,255)"
     stroke="rgb(0,0,0)"
     stroke-width="0.0010cm"
     stroke-linecap="round"
     stroke-linejoin="round"
     shaper:cutDepth="0.3cm"
     id="path1933"
     style="fill:#ffffff;fill-opacity:1;stroke:#000000;stroke-opacity:1;stroke-width:0.01;stroke-miterlimit:4;stroke-dasharray:none" /><path
     d="M-3.3765439,8.5350001 L-3.3765439,9.9350001 -4.7765439,9.9350001 -4.7765439,8.5350001 -3.3765439,8.5350001z"
     transform="matrix(1,0,0,-1,7.2765439,10.4350001)"
     fill="rgb(255,255,255)"
     stroke="rgb(0,0,0)"
     stroke-width="0.0010cm"
     stroke-linecap="round"
     stroke-linejoin="round"
     shaper:cutDepth="0.3cm"
     id="path1935"
     style="fill:#ffffff;fill-opacity:1;stroke:#000000;stroke-opacity:1;stroke-width:0.01;stroke-miterlimit:4;stroke-dasharray:none" /><path
     d="M-1.2765439,-0.0649999 L-1.2765439,-1.4649999 0.1234561,-1.4649999 0.1234561,-0.0649999 -1.2765439,-0.0649999z"
     transform="matrix(1,0,0,-1,7.2765439,10.4350001)"
     fill="rgb(255,255,255)"
     stroke="rgb(0,0,0)"
     stroke-width="0.0010cm"
     stroke-linecap="round"
     stroke-linejoin="round"
     shaper:cutDepth="0.3cm"
     id="path1937"
     style="fill:#ffffff;fill-opacity:1;stroke:#000000;stroke-opacity:1;stroke-width:0.01;stroke-miterlimit:4;stroke-dasharray:none" /><path
     d="M-4.2765439,2.5350001 L-2.8765439,2.5350001 -2.8765439,3.9350001 -4.2765439,3.9350001 -4.2765439,2.5350001z"
     transform="matrix(1,0,0,-1,7.2765439,10.4350001)"
     fill="rgb(255,255,255)"
     stroke="rgb(0,0,0)"
     stroke-width="0.0010cm"
     stroke-linecap="round"
     stroke-linejoin="round"
     shaper:cutDepth="0.3cm"
     id="path1939"
     style="fill:#ffffff;fill-opacity:1;stroke:#000000;stroke-opacity:1;stroke-width:0.01;stroke-miterlimit:4;stroke-dasharray:none" /><path
     d="M-5.1765439,-2.5350001 L0.3234561,-2.5350001 0.3234561,-2.2650001 -5.1765439,-2.2650001 -5.1765439,-2.5350001z"
     transform="matrix(1,0,0,-1,7.2765439,10.4350001)"
     fill="rgb(255,255,255)"
     stroke="rgb(0,0,0)"
     stroke-width="0.0010cm"
     stroke-linecap="round"
     stroke-linejoin="round"
     shaper:cutDepth="0.3cm"
     id="path1941"
     style="fill:#ffffff;fill-opacity:1;stroke:#000000;stroke-opacity:1;stroke-width:0.01;stroke-miterlimit:4;stroke-dasharray:none" /><path
     d="M-5.1765439,-4.0350001 L-5.1765439,-4.3050001 0.3234561,-4.3050001 0.3234561,-4.0350001 -5.1765439,-4.0350001z"
     transform="matrix(1,0,0,-1,7.2765439,10.4350001)"
     fill="rgb(255,255,255)"
     stroke="rgb(0,0,0)"
     stroke-width="0.0010cm"
     stroke-linecap="round"
     stroke-linejoin="round"
     shaper:cutDepth="0.3cm"
     id="path1943"
     style="fill:#ffffff;fill-opacity:1;stroke:#000000;stroke-opacity:1;stroke-width:0.01;stroke-miterlimit:4;stroke-dasharray:none" /><path
     d="M-5.4365439,9.5350001 a0.16,0.16 0 1,1 0.32,0 a0.16,0.16 0 1,1 -0.32,0z"
     transform="matrix(1,0,0,-1,7.2765439,10.4350001)"
     fill="rgb(255,255,255)"
     stroke="rgb(0,0,0)"
     stroke-width="0.0010cm"
     stroke-linecap="round"
     stroke-linejoin="round"
     shaper:cutDepth="0.3cm"
     id="path1945"
     style="fill:#ffffff;fill-opacity:1;stroke:#000000;stroke-opacity:1;stroke-width:0.01;stroke-miterlimit:4;stroke-dasharray:none" /><path
     d="M-6.4865439,5.2350001 a0.16,0.16 0 1,1 0.32,0 a0.16,0.16 0 1,1 -0.32,0z"
     transform="matrix(1,0,0,-1,7.2765439,10.4350001)"
     fill="rgb(255,255,255)"
     stroke="rgb(0,0,0)"
     stroke-width="0.0010cm"
     stroke-linecap="round"
     stroke-linejoin="round"
     shaper:cutDepth="0.3cm"
     id="path1947"
     style="fill:#ffffff;fill-opacity:1;stroke:#000000;stroke-opacity:1;stroke-width:0.01;stroke-miterlimit:4;stroke-dasharray:none" /><path
     d="M-6.9365439,3.2350001 a0.16,0.16 0 1,1 0.32,0 a0.16,0.16 0 1,1 -0.32,0z"
     transform="matrix(1,0,0,-1,7.2765439,10.4350001)"
     fill="rgb(255,255,255)"
     stroke="rgb(0,0,0)"
     stroke-width="0.0010cm"
     stroke-linecap="round"
     stroke-linejoin="round"
     shaper:cutDepth="0.3cm"
     id="path1949"
     style="fill:#ffffff;fill-opacity:1;stroke:#000000;stroke-opacity:1;stroke-width:0.01;stroke-miterlimit:4;stroke-dasharray:none" /><path
     d="M2.5235982,-2.8483751 a0.16,0.16 0 1,1 0.32,0 a0.16,0.16 0 1,1 -0.32,0z"
     transform="matrix(1,0,0,-1,7.2765439,10.4350001)"
     fill="rgb(255,255,255)"
     stroke="rgb(0,0,0)"
     stroke-width="0.0010cm"
     stroke-linecap="round"
     stroke-linejoin="round"
     shaper:cutDepth="0.3cm"
     id="path1951"
     style="fill:#ffffff;fill-opacity:1;stroke:#000000;stroke-opacity:1;stroke-width:0.01;stroke-miterlimit:4;stroke-dasharray:none" /><path
     d="M2.6634561,1.1350001 a0.16,0.16 0 1,1 0.32,0 a0.16,0.16 0 1,1 -0.32,0z"
     transform="matrix(1,0,0,-1,7.2765439,10.4350001)"
     fill="rgb(255,255,255)"
     stroke="rgb(0,0,0)"
     stroke-width="0.0010cm"
     stroke-linecap="round"
     stroke-linejoin="round"
     shaper:cutDepth="0.3cm"
     id="path1953"
     style="fill:#ffffff;fill-opacity:1;stroke:#000000;stroke-opacity:1;stroke-width:0.01;stroke-miterlimit:4;stroke-dasharray:none" /><path
     d="M3.6634561,3.1350001 a0.16,0.16 0 1,1 0.32,0 a0.16,0.16 0 1,1 -0.32,0z"
     transform="matrix(1,0,0,-1,7.2765439,10.4350001)"
     fill="rgb(255,255,255)"
     stroke="rgb(0,0,0)"
     stroke-width="0.0010cm"
     stroke-linecap="round"
     stroke-linejoin="round"
     shaper:cutDepth="0.3cm"
     id="path1955"
     style="fill:#ffffff;fill-opacity:1;stroke:#000000;stroke-opacity:1;stroke-width:0.01;stroke-miterlimit:4;stroke-dasharray:none" /><path
     d="M4.1634561,5.1350001 a0.16,0.16 0 1,1 0.32,0 a0.16,0.16 0 1,1 -0.32,0z"
     transform="matrix(1,0,0,-1,7.2765439,10.4350001)"
     fill="rgb(255,255,255)"
     stroke="rgb(0,0,0)"
     stroke-width="0.0010cm"
     stroke-linecap="round"
     stroke-linejoin="round"
     shaper:cutDepth="0.3cm"
     id="path1957"
     style="fill:#ffffff;fill-opacity:1;stroke:#000000;stroke-opacity:1;stroke-width:0.01;stroke-miterlimit:4;stroke-dasharray:none" /><path
     d="M4.8634561,9.5350001 a0.16,0.16 0 1,1 0.32,0 a0.16,0.16 0 1,1 -0.32,0z"
     transform="matrix(1,0,0,-1,7.2765439,10.4350001)"
     fill="rgb(255,255,255)"
     stroke="rgb(0,0,0)"
     stroke-width="0.0010cm"
     stroke-linecap="round"
     stroke-linejoin="round"
     shaper:cutDepth="0.3cm"
     id="path1959"
     style="fill:#ffffff;fill-opacity:1;stroke:#000000;stroke-opacity:1;stroke-width:0.01;stroke-miterlimit:4;stroke-dasharray:none" /></svg>
