<?xml version="1.0" standalone="no"?>
<!DOCTYPE svg PUBLIC "-//W3C//DTD SVG 1.1//EN" "http://www.w3.org/Graphics/SVG/1.1/DTD/svg11.dtd">
<svg width="153mm" height="145mm" viewBox="0 0 153 145" xmlns="http://www.w3.org/2000/svg" version="1.1">
<title>OpenSCAD Model</title>
<path d="
M 15.7834,144.782 L 16.1652,144.693 L 16.5224,144.531 L 51.8661,124.125 L 57.0937,121.513 L 62.5975,119.55
 L 68.2975,118.262 L 74.111,117.669 L 79.9537,117.779 L 85.7406,118.592 L 122.758,126.087 L 125.291,126.534
 L 127.843,126.854 L 130.407,127.047 L 132.978,127.111 L 151,127.111 L 151.39,127.073 L 151.765,126.959
 L 152.111,126.774 L 152.414,126.525 L 152.663,126.222 L 152.848,125.876 L 152.962,125.501 L 153,125.111
 L 153,17 L 152.962,16.6098 L 152.848,16.2346 L 152.663,15.8889 L 152.414,15.5858 L 152.111,15.3371
 L 151.765,15.1522 L 151.39,15.0384 L 151,15 L 134.056,15 L 131.268,14.8976 L 128.495,14.5909
 L 125.752,14.0816 L 123.053,13.3724 L 120.415,12.4671 L 93.0257,1.93297 L 91.0118,1.24213 L 88.9526,0.700897
 L 86.8593,0.31221 L 84.743,0.0781555 L 82.6153,-0 L 79.8713,-0 L 77.5565,0.092514 L 75.2566,0.369507
 L 72.9861,0.829193 L 70.7595,1.46863 L 68.5911,2.28375 L 32.1707,17.6612 L 30.8996,18.1391 L 29.5943,18.5139
 L 28.2634,18.7834 L 26.9151,18.9458 L 25.5582,19 L 2,19 L 1.60982,19.0384 L 1.23462,19.1522
 L 0.888855,19.3371 L 0.585785,19.5858 L 0.337051,19.8889 L 0.152237,20.2346 L 0.0384216,20.6098 L 0,21
 L 0,104.372 L 0.317719,110.435 L 1.26743,116.431 L 2.83871,122.295 L 5.01436,127.963 L 7.77052,133.372
 L 13.7903,143.799 L 14.0187,144.118 L 14.3048,144.386 L 14.6378,144.593 L 15.0047,144.731 L 15.3916,144.795
 z
M 80.5056,6.52168 L 80.0595,6.29442 L 79.7056,5.94044 L 79.4783,5.49442 L 79.4,5 L 79.4783,4.50557
 L 79.7056,4.05954 L 80.0595,3.70557 L 80.5056,3.4783 L 81,3.39999 L 81.4944,3.4783 L 81.9404,3.70557
 L 82.2944,4.05954 L 82.5217,4.50557 L 82.6,5 L 82.5217,5.49442 L 82.2944,5.94044 L 81.9404,6.29442
 L 81.4944,6.52168 L 81,6.59999 z
M 100.506,11.0217 L 100.06,10.7944 L 99.7056,10.4404 L 99.4783,9.99442 L 99.4,9.5 L 99.4783,9.00557
 L 99.7056,8.55954 L 100.06,8.20557 L 100.506,7.9783 L 101,7.89999 L 101.494,7.9783 L 101.94,8.20557
 L 102.294,8.55954 L 102.522,9.00557 L 102.6,9.5 L 102.522,9.99442 L 102.294,10.4404 L 101.94,10.7944
 L 101.494,11.0217 L 101,11.1 z
M 73,25 L 73,9 L 89,9 L 89,25 z
M 93,30 L 93,14 L 109,14 L 109,30 z
M 53,30 L 53,14 L 69,14 L 69,30 z
M 143.506,21.5217 L 143.06,21.2944 L 142.706,20.9404 L 142.478,20.4944 L 142.4,20 L 142.478,19.5056
 L 142.706,19.0595 L 143.06,18.7056 L 143.506,18.4783 L 144,18.4 L 144.494,18.4783 L 144.94,18.7056
 L 145.294,19.0595 L 145.522,19.5056 L 145.6,20 L 145.522,20.4944 L 145.294,20.9404 L 144.94,21.2944
 L 144.494,21.5217 L 144,21.6 z
M 33,35 L 33,19 L 49,19 L 49,35 z
M 14.7056,22.0595 L 15.0595,21.7056 L 15.5056,21.4783 L 16,21.4 L 16.4944,21.4783 L 16.9404,21.7056
 L 17.2944,22.0595 L 17.5217,22.5056 L 17.6,23 L 23.2,23 L 23.2,21 L 26.2,21
 L 26.2,23 L 27.3,23 L 27.3,77 L 4.29999,77 L 4.29999,23 L 5.5,23
 L 5.5,21 L 8.5,21 L 8.5,23 L 14.4,23 L 14.4783,22.5056 z
M 113,40 L 113,24 L 129,24 L 129,40 z
M 133,40 L 133,24 L 149,24 L 149,40 z
M 73,45 L 73,29 L 89,29 L 89,45 z
M 93,50 L 93,34 L 109,34 L 109,50 z
M 53,50 L 53,34 L 69,34 L 69,50 z
M 33,55 L 33,39 L 49,39 L 49,55 z
M 113,60 L 113,44 L 129,44 L 129,60 z
M 133,60 L 133,44 L 149,44 L 149,60 z
M 73,65 L 73,49 L 89,49 L 89,65 z
M 53,70 L 53,54 L 69,54 L 69,70 z
M 93,70 L 93,54 L 109,54 L 109,70 z
M 33,75 L 33,59 L 49,59 L 49,75 z
M 113,80 L 113,64 L 129,64 L 129,80 z
M 133,80 L 133,64 L 149,64 L 149,80 z
M 73,85 L 73,69 L 89,69 L 89,85 z
M 53,90 L 53,74 L 69,74 L 69,90 z
M 93,90 L 93,74 L 109,74 L 109,90 z
M 33,95 L 33,79 L 49,79 L 49,95 z
M 25.2,83.8856 L 24.4,82.5 L 25.2,81.1143 L 26.8,81.1143 L 27.6,82.5 L 26.8,83.8856
 z
M 113,100 L 113,84 L 129,84 L 129,100 z
M 133,100 L 133,84 L 149,84 L 149,100 z
M 73,105 L 73,89 L 89,89 L 89,105 z
M 5.2,93.3856 L 4.39999,92 L 5.2,90.6143 L 6.79999,90.6143 L 7.59999,92 L 6.79999,93.3856
 z
M 93,110 L 93,94 L 109,94 L 109,110 z
M 19.6756,101.122 L 19.2295,100.894 L 18.8756,100.54 L 18.6483,100.094 L 18.57,99.6 L 18.6483,99.1056
 L 18.8756,98.6595 L 19.2295,98.3056 L 19.6756,98.0783 L 20.17,98 L 20.6644,98.0783 L 21.1104,98.3056
 L 21.4644,98.6595 L 21.6917,99.1056 L 21.77,99.6 L 21.6917,100.094 L 21.4644,100.54 L 21.1104,100.894
 L 20.6644,101.122 L 20.17,101.2 z
M 59.5056,102.522 L 59.0595,102.294 L 58.7056,101.94 L 58.4783,101.494 L 58.4,101 L 58.4783,100.506
 L 58.7056,100.06 L 59.0595,99.7056 L 59.5056,99.4783 L 60,99.4 L 60.4944,99.4783 L 60.9404,99.7056
 L 61.2944,100.06 L 61.5217,100.506 L 61.6,101 L 61.5217,101.494 L 61.2944,101.94 L 60.9404,102.294
 L 60.4944,102.522 L 60,102.6 z
M 30.6718,108.272 L 44.5282,100.272 L 52.5282,114.128 L 38.6718,122.128 z
M 113,120 L 113,104 L 129,104 L 129,120 z
M 133,120 L 133,104 L 149,104 L 149,120 z
M 79.5056,112.522 L 79.0595,112.294 L 78.7056,111.94 L 78.4783,111.494 L 78.4,111 L 78.4783,110.506
 L 78.7056,110.06 L 79.0595,109.706 L 79.5056,109.478 L 80,109.4 L 80.4944,109.478 L 80.9404,109.706
 L 81.2944,110.06 L 81.5217,110.506 L 81.6,111 L 81.5217,111.494 L 81.2944,111.94 L 80.9404,112.294
 L 80.4944,112.522 L 80,112.6 z
M 13.5718,118.172 L 27.4282,110.172 L 35.4282,124.028 L 21.5718,132.028 z
M 99.5056,117.522 L 99.0595,117.294 L 98.7056,116.94 L 98.4783,116.494 L 98.4,116 L 98.4783,115.506
 L 98.7056,115.06 L 99.0595,114.706 L 99.5056,114.478 L 100,114.4 L 100.494,114.478 L 100.94,114.706
 L 101.294,115.06 L 101.522,115.506 L 101.6,116 L 101.522,116.494 L 101.294,116.94 L 100.94,117.294
 L 100.494,117.522 L 100,117.6 z
M 143.506,124.522 L 143.06,124.294 L 142.706,123.94 L 142.478,123.494 L 142.4,123 L 142.478,122.506
 L 142.706,122.06 L 143.06,121.706 L 143.506,121.478 L 144,121.4 L 144.494,121.478 L 144.94,121.706
 L 145.294,122.06 L 145.522,122.506 L 145.6,123 L 145.522,123.494 L 145.294,123.94 L 144.94,124.294
 L 144.494,124.522 L 144,124.6 z
" stroke="black" fill="lightgray" stroke-width="0.5"/>
</svg>
