<?xml version="1.0" standalone="no"?>
<!DOCTYPE svg PUBLIC "-//W3C//DTD SVG 1.1//EN" "http://www.w3.org/Graphics/SVG/1.1/DTD/svg11.dtd">
<svg width="153mm" height="145mm" viewBox="0 0 153 145" xmlns="http://www.w3.org/2000/svg" version="1.1">
<title>OpenSCAD Model</title>
<path d="
M 15.7834,144.782 L 16.1652,144.693 L 16.5224,144.531 L 51.8661,124.125 L 57.0937,121.513 L 62.5975,119.55
 L 68.2975,118.262 L 74.111,117.669 L 79.9537,117.779 L 85.7406,118.592 L 122.758,126.087 L 125.291,126.534
 L 127.843,126.854 L 130.407,127.047 L 132.978,127.111 L 151,127.111 L 151.39,127.073 L 151.765,126.959
 L 152.111,126.774 L 152.414,126.525 L 152.663,126.222 L 152.848,125.876 L 152.962,125.501 L 153,125.111
 L 153,17 L 152.962,16.6098 L 152.848,16.2346 L 152.663,15.8889 L 152.414,15.5858 L 152.111,15.3371
 L 151.765,15.1522 L 151.39,15.0384 L 151,15 L 134.056,15 L 131.268,14.8976 L 128.495,14.5909
 L 125.752,14.0816 L 123.053,13.3724 L 120.415,12.4671 L 93.0257,1.93297 L 91.0118,1.24213 L 88.9526,0.700897
 L 86.8593,0.31221 L 84.743,0.0781555 L 82.6153,-0 L 79.8713,-0 L 77.5565,0.092514 L 75.2566,0.369507
 L 72.9861,0.829193 L 70.7595,1.46863 L 68.5911,2.28375 L 32.1707,17.6612 L 30.8996,18.1391 L 29.5943,18.5139
 L 28.2634,18.7834 L 26.9151,18.9458 L 25.5582,19 L 2,19 L 1.60982,19.0384 L 1.23462,19.1522
 L 0.888855,19.3371 L 0.585785,19.5858 L 0.337051,19.8889 L 0.152237,20.2346 L 0.0384216,20.6098 L 0,21
 L 0,104.372 L 0.317719,110.435 L 1.26743,116.431 L 2.83871,122.295 L 5.01436,127.963 L 7.77052,133.372
 L 13.7903,143.799 L 14.0187,144.118 L 14.3048,144.386 L 14.6378,144.593 L 15.0047,144.731 L 15.3916,144.795
 z
M 80.5056,6.52168 L 80.0595,6.29442 L 79.7056,5.94044 L 79.4783,5.49442 L 79.4,5 L 79.4783,4.50557
 L 79.7056,4.05954 L 80.0595,3.70557 L 80.5056,3.4783 L 81,3.39999 L 81.4944,3.4783 L 81.9404,3.70557
 L 82.2944,4.05954 L 82.5217,4.50557 L 82.6,5 L 82.5217,5.49442 L 82.2944,5.94044 L 81.9404,6.29442
 L 81.4944,6.52168 L 81,6.59999 z
M 100.506,11.0217 L 100.06,10.7944 L 99.7056,10.4404 L 99.4783,9.99442 L 99.4,9.5 L 99.4783,9.00557
 L 99.7056,8.55954 L 100.06,8.20557 L 100.506,7.9783 L 101,7.89999 L 101.494,7.9783 L 101.94,8.20557
 L 102.294,8.55954 L 102.522,9.00557 L 102.6,9.5 L 102.522,9.99442 L 102.294,10.4404 L 101.94,10.7944
 L 101.494,11.0217 L 101,11.1 z
M 74.05,23.95 L 74.05,10.05 L 87.95,10.05 L 87.95,23.95 z
M 54.05,28.95 L 54.05,15.05 L 67.95,15.05 L 67.95,28.95 z
M 94.05,28.95 L 94.05,15.05 L 107.95,15.05 L 107.95,28.95 z
M 143.506,21.5217 L 143.06,21.2944 L 142.706,20.9404 L 142.478,20.4944 L 142.4,20 L 142.478,19.5056
 L 142.706,19.0595 L 143.06,18.7056 L 143.506,18.4783 L 144,18.4 L 144.494,18.4783 L 144.94,18.7056
 L 145.294,19.0595 L 145.522,19.5056 L 145.6,20 L 145.522,20.4944 L 145.294,20.9404 L 144.94,21.2944
 L 144.494,21.5217 L 144,21.6 z
M 34.05,33.95 L 34.05,20.05 L 47.95,20.05 L 47.95,33.95 z
M 14.7056,22.0595 L 15.0595,21.7056 L 15.5056,21.4783 L 16,21.4 L 16.4944,21.4783 L 16.9404,21.7056
 L 17.2944,22.0595 L 17.5217,22.5056 L 17.6,23 L 27.3,23 L 27.3,77 L 4.29999,77
 L 4.29999,23 L 14.4,23 L 14.4783,22.5056 z
M 134.05,38.95 L 134.05,25.05 L 147.95,25.05 L 147.95,38.95 z
M 114.05,38.95 L 114.05,25.05 L 127.95,25.05 L 127.95,38.95 z
M 74.05,43.95 L 74.05,30.05 L 87.95,30.05 L 87.95,43.95 z
M 54.05,48.95 L 54.05,35.05 L 67.95,35.05 L 67.95,48.95 z
M 94.05,48.95 L 94.05,35.05 L 107.95,35.05 L 107.95,48.95 z
M 34.05,53.95 L 34.05,40.05 L 47.95,40.05 L 47.95,53.95 z
M 114.05,58.95 L 114.05,45.05 L 127.95,45.05 L 127.95,58.95 z
M 134.05,58.95 L 134.05,45.05 L 147.95,45.05 L 147.95,58.95 z
M 74.05,63.95 L 74.05,50.05 L 87.95,50.05 L 87.95,63.95 z
M 54.05,68.95 L 54.05,55.05 L 67.95,55.05 L 67.95,68.95 z
M 94.05,68.95 L 94.05,55.05 L 107.95,55.05 L 107.95,68.95 z
M 34.05,73.95 L 34.05,60.05 L 47.95,60.05 L 47.95,73.95 z
M 114.05,78.95 L 114.05,65.05 L 127.95,65.05 L 127.95,78.95 z
M 134.05,78.95 L 134.05,65.05 L 147.95,65.05 L 147.95,78.95 z
M 74.05,83.95 L 74.05,70.05 L 87.95,70.05 L 87.95,83.95 z
M 54.05,88.95 L 54.05,75.05 L 67.95,75.05 L 67.95,88.95 z
M 94.05,88.95 L 94.05,75.05 L 107.95,75.05 L 107.95,88.95 z
M 34.05,93.95 L 34.05,80.05 L 47.95,80.05 L 47.95,93.95 z
M 25.5056,84.0217 L 25.0595,83.7944 L 24.7056,83.4404 L 24.4783,82.9944 L 24.4,82.5 L 24.4783,82.0056
 L 24.7056,81.5595 L 25.0595,81.2056 L 25.5056,80.9783 L 26,80.9 L 26.4944,80.9783 L 26.9404,81.2056
 L 27.2944,81.5595 L 27.5217,82.0056 L 27.6,82.5 L 27.5217,82.9944 L 27.2944,83.4404 L 26.9404,83.7944
 L 26.4944,84.0217 L 26,84.1 z
M 134.05,98.95 L 134.05,85.05 L 147.95,85.05 L 147.95,98.95 z
M 114.05,98.95 L 114.05,85.05 L 127.95,85.05 L 127.95,98.95 z
M 74.05,103.95 L 74.05,90.05 L 87.95,90.05 L 87.95,103.95 z
M 5.50557,93.5217 L 5.05954,93.2944 L 4.70557,92.9404 L 4.4783,92.4944 L 4.39999,92 L 4.4783,91.5056
 L 4.70557,91.0595 L 5.05954,90.7056 L 5.50557,90.4783 L 6,90.4 L 6.49442,90.4783 L 6.94044,90.7056
 L 7.29442,91.0595 L 7.52168,91.5056 L 7.59999,92 L 7.52168,92.4944 L 7.29442,92.9404 L 6.94044,93.2944
 L 6.49442,93.5217 L 6,93.6 z
M 94.05,108.95 L 94.05,95.05 L 107.95,95.05 L 107.95,108.95 z
M 19.6756,101.122 L 19.2295,100.894 L 18.8756,100.54 L 18.6483,100.094 L 18.57,99.6 L 18.6483,99.1056
 L 18.8756,98.6595 L 19.2295,98.3056 L 19.6756,98.0783 L 20.17,98 L 20.6644,98.0783 L 21.1104,98.3056
 L 21.4644,98.6595 L 21.6917,99.1056 L 21.77,99.6 L 21.6917,100.094 L 21.4644,100.54 L 21.1104,100.894
 L 20.6644,101.122 L 20.17,101.2 z
M 59.5056,102.522 L 59.0595,102.294 L 58.7056,101.94 L 58.4783,101.494 L 58.4,101 L 58.4783,100.506
 L 58.7056,100.06 L 59.0595,99.7056 L 59.5056,99.4783 L 60,99.4 L 60.4944,99.4783 L 60.9404,99.7056
 L 61.2944,100.06 L 61.5217,100.506 L 61.6,101 L 61.5217,101.494 L 61.2944,101.94 L 60.9404,102.294
 L 60.4944,102.522 L 60,102.6 z
M 32.1061,108.656 L 44.1439,101.706 L 51.0939,113.744 L 39.0561,120.694 z
M 134.05,118.95 L 134.05,105.05 L 147.95,105.05 L 147.95,118.95 z
M 114.05,118.95 L 114.05,105.05 L 127.95,105.05 L 127.95,118.95 z
M 79.5056,112.522 L 79.0595,112.294 L 78.7056,111.94 L 78.4783,111.494 L 78.4,111 L 78.4783,110.506
 L 78.7056,110.06 L 79.0595,109.706 L 79.5056,109.478 L 80,109.4 L 80.4944,109.478 L 80.9404,109.706
 L 81.2944,110.06 L 81.5217,110.506 L 81.6,111 L 81.5217,111.494 L 81.2944,111.94 L 80.9404,112.294
 L 80.4944,112.522 L 80,112.6 z
M 15.0061,118.556 L 27.0439,111.606 L 33.9939,123.644 L 21.9561,130.594 z
M 99.5056,117.522 L 99.0595,117.294 L 98.7056,116.94 L 98.4783,116.494 L 98.4,116 L 98.4783,115.506
 L 98.7056,115.06 L 99.0595,114.706 L 99.5056,114.478 L 100,114.4 L 100.494,114.478 L 100.94,114.706
 L 101.294,115.06 L 101.522,115.506 L 101.6,116 L 101.522,116.494 L 101.294,116.94 L 100.94,117.294
 L 100.494,117.522 L 100,117.6 z
M 143.506,124.522 L 143.06,124.294 L 142.706,123.94 L 142.478,123.494 L 142.4,123 L 142.478,122.506
 L 142.706,122.06 L 143.06,121.706 L 143.506,121.478 L 144,121.4 L 144.494,121.478 L 144.94,121.706
 L 145.294,122.06 L 145.522,122.506 L 145.6,123 L 145.522,123.494 L 145.294,123.94 L 144.94,124.294
 L 144.494,124.522 L 144,124.6 z
" stroke="black" fill="lightgray" stroke-width="0.5"/>
</svg>
